#!OML:ASF F:\VICON\USERDATA\INSTALL\rory3\rory3.ASF
:FULLY-SPECIFIED
:DEGREES
536
root 0.653269 16.4477 -13.2563 29.6123 -7.62258 -7.80931
lowerback -13.5258 1.09951 -2.76854
upperback -13.7101 1.77363 3.47222
thorax -7.34309 1.32405 5.39527
lowerneck -10.6644 -1.10525 3.19428
upperneck 33.7946 -3.81052 3.73643
head 13.1366 -0.810134 0.358537
rclavicle -1.76546e-014 -5.07398e-014
rhumerus -112.85 -34.4956 51.7438
rradius 10.0585
rwrist 66.0065
rhand 15.092 7.75158
rfingers 7.12502
rthumb 39.9382 -17.4931
lclavicle -1.76546e-014 -5.07398e-014
lhumerus -58.9819 23.7806 51.9954
lradius 17.4349
lwrist -22.8234
lhand 12.2116 21.6694
lfingers 7.12502
lthumb 37.2208 47.6764
rfemur -12.701 5.04712 28.4134
rtibia 33.7587
rfoot 9.5572 -11.7503
rtoes 1.02606
lfemur -49.0406 5.61555 -28.2088
ltibia 40.7653
lfoot -52.0803 24.6546
ltoes 29.2625
537
root 0.67369 16.4475 -13.228 29.5316 -7.37344 -7.96162
lowerback -13.7986 1.19948 -2.59086
upperback -13.6165 1.90003 3.54539
thorax -7.09841 1.37153 5.38875
lowerneck -10.2264 -1.23019 3.1867
upperneck 33.5685 -3.94253 3.72014
head 12.9447 -0.88342 0.33754
rclavicle 5.16592e-014 1.42628e-014
rhumerus -111.979 -35.0807 51.208
rradius 10.0789
rwrist 65.6011
rhand 15.0206 7.15527
rfingers 7.12502
rthumb 39.8711 -18.1096
lclavicle 5.16592e-014 1.42628e-014
lhumerus -60.1385 24.8423 49.2801
lradius 16.854
lwrist -25.5721
lhand 10.4487 22.2061
lfingers 7.12502
lthumb 35.5518 48.6314
rfemur -12.4946 4.92277 27.8826
rtibia 33.7239
rfoot 7.3084 -11.9173
rtoes 1.70863
lfemur -48.8409 5.50693 -28.0211
ltibia 40.8262
lfoot -52.2446 24.4234
ltoes 29.6214
538
root 0.695944 16.4556 -13.1927 29.4232 -7.3238 -8.09149
lowerback -13.8917 1.39045 -2.45688
upperback -13.6631 2.14808 3.54597
thorax -7.12494 1.48931 5.33316
lowerneck -9.68139 -1.4434 3.11006
upperneck 33.4628 -4.20738 3.75423
head 12.7866 -1.01634 0.333054
rclavicle -9.0416e-015 -2.82274e-014
rhumerus -113.574 -34.1248 55.3218
rradius 10.2155
rwrist 70.1134
rhand 15.1257 7.56532
rfingers 7.12502
rthumb 39.97 -17.6698
lclavicle -9.0416e-015 -2.82274e-014
lhumerus -61.3859 25.5483 46.4186
lradius 16.2227
lwrist -28.5938
lhand 8.94178 22.0728
lfingers 7.12502
lthumb 34.122 48.8294
rfemur -12.3359 4.87287 27.2076
rtibia 33.7237
rfoot 5.37902 -12.4624
rtoes 1.90286
lfemur -48.5815 5.24085 -27.8163
ltibia 40.861
lfoot -52.5513 24.8955
ltoes 29.1781
539
root 0.71727 16.4866 -13.1424 29.1769 -7.21093 -8.16324
lowerback -13.9081 1.48116 -2.45455
upperback -13.5428 2.27462 3.6557
thorax -7.00107 1.55624 5.46041
lowerneck -9.73726 -1.61713 2.93296
upperneck 33.6132 -4.43878 3.76974
head 12.8679 -1.1322 0.339362
rclavicle -3.49193e-015 1.99157e-014
rhumerus -114.852 -33.6093 59.0514
rradius 10.337
rwrist 74.5743
rhand 15.362 8.13225
rfingers 7.12502
rthumb 40.1923 -17.0355
lclavicle -3.49193e-015 1.99157e-014
lhumerus -62.7314 26.383 43.5067
lradius 15.7751
lwrist -31.6826
lhand 7.42759 21.4713
lfingers 7.12502
lthumb 32.6826 48.5379
rfemur -12.4188 5.19535 26.4242
rtibia 33.9106
rfoot 4.77893 -14.3159
rtoes 1.45885
lfemur -47.9559 4.81463 -27.5325
ltibia 40.7219
lfoot -53.2594 24.6547
ltoes 29.017
540
root 0.735005 16.4516 -13.1172 28.9952 -7.03508 -8.4721
lowerback -13.992 1.5849 -2.15513
upperback -13.4238 2.39348 3.81616
thorax -6.82739 1.59525 5.4759
lowerneck -9.79131 -1.74882 2.89379
upperneck 33.7679 -4.60288 3.66957
head 12.9441 -1.21592 0.285495
rclavicle -5.24916e-016 1.83876e-015
rhumerus -115.607 -33.4553 61.8518
rradius 10.3412
rwrist 78.5077
rhand 14.9325 7.72996
rfingers 7.12502
rthumb 39.7881 -17.5597
lclavicle -5.24916e-016 1.83876e-015
lhumerus -63.9262 26.7744 40.8984
lradius 15.4826
lwrist -34.0844
lhand 6.21011 21.8185
lfingers 7.12502
lthumb 31.5235 49.1188
rfemur -12.0152 4.9582 26.0195
rtibia 34.0449
rfoot 4.33186 -16.4841
rtoes 10.1553
lfemur -47.3995 4.02831 -26.79
ltibia 40.5856
lfoot -55.0023 22.0293
ltoes 32.4046
